<svg width="150" height="50" viewBox="0 0 150 50" fill="none" xmlns="http://www.w3.org/2000/svg">
<path d="M74.2153 0.259804C74.6693 -0.115138 75.3982 -0.0694597 75.8445 0.301676C78.743 2.63697 81.003 5.79828 82.082 9.35357C83.2707 12.8822 83.5323 16.8162 82.309 20.3734C81.8878 21.7514 81.0934 22.9657 80.3221 24.1723C83.6573 21.9227 87.3791 20.1755 91.3316 19.3095C93.9032 18.8337 96.6498 18.8071 99.1329 19.7035C101.47 20.5676 103.13 22.6707 103.853 24.985C107.552 24.2808 111.548 23.9725 115.116 25.3961C117.555 26.5305 119.8 28.5498 120.386 31.2486C122.283 30.8908 124.262 30.8699 126.141 31.3438C129.505 32.0575 132.558 33.7552 135.935 34.4195C137.435 34.7621 139.02 34.8363 140.507 34.389C142.125 33.8923 143.746 33.19 144.956 31.9833C145.518 31.4352 145.912 30.7538 146.356 30.1162C145.381 30.1276 144.312 30.2951 143.44 29.7527C142.329 29.1113 141.371 28.1444 140.844 26.9758C139.838 24.671 141.125 21.7419 143.458 20.8131C144.981 20.2402 146.822 20.4534 148.066 21.5344C149.428 22.7696 150.093 24.6558 149.989 26.4658C150.072 28.782 149.091 30.9993 147.76 32.8569C146.643 34.311 145.121 35.4225 143.442 36.1648C141.913 36.7852 140.317 37.3791 138.634 37.3296C135.585 37.4476 132.687 36.3532 129.873 35.333C128.236 34.6422 126.516 34.1549 124.776 33.7952C123.323 33.4545 121.817 33.6487 120.392 34.0198C120.044 36.0525 119.161 38.1194 117.444 39.3813C116.647 39.9085 115.784 40.4814 114.789 40.4737C114.084 40.4985 113.285 40.1121 113.12 39.3832C112.895 38.3288 112.935 37.1887 113.414 36.2047C114.243 34.3529 115.953 33.1043 117.707 32.1774C117.83 31.4789 117.353 30.7652 116.996 30.1714C115.967 28.8658 114.514 27.8323 112.866 27.4631C110.094 26.7551 107.182 27.0463 104.411 27.6039C104.682 30.2856 103.784 32.9825 102.187 35.137C100.539 37.4342 98.4347 39.6382 95.64 40.4909C94.4322 40.8677 93.1377 41.0067 91.8817 40.8316C90.1603 40.5327 88.8735 38.8446 89.0005 37.1297C88.9101 34.9219 90.1218 32.895 91.6721 31.3952C94.4014 28.8544 97.6808 26.8788 101.239 25.7045C100.777 24.2256 99.7677 22.8686 98.2982 22.25C95.8093 21.3155 93.0473 21.5363 90.5334 22.2577C86.0211 23.5557 81.8839 25.9747 78.393 29.0675C81.2069 31.3705 84.1997 33.603 86.2193 36.671C87.4964 38.6295 88.1677 41.1894 87.2637 43.4276C86.6251 45.4222 85.0287 46.9391 83.3419 48.1134C81.3492 49.4514 78.918 50.1195 76.5119 49.9824C74.5135 49.775 72.4785 50.2451 70.5032 49.7407C68.1086 49.2554 66.0024 47.8679 64.3349 46.1359C63.1481 44.7485 62.2576 42.9841 62.3634 41.1247C62.3211 38.934 63.4616 36.9318 64.8215 35.2817C66.7756 32.8931 69.253 31.0107 71.6284 29.0599C68.8125 26.599 65.6216 24.5454 62.1268 23.1636C58.9801 21.8865 55.3949 21.0491 52.0617 22.1244C50.4287 22.6593 49.2766 24.1057 48.7823 25.693C52.0982 26.816 55.1853 28.6012 57.8049 30.9042C59.4514 32.3792 60.8804 34.3186 61.0131 36.5854C61.1516 37.912 60.7227 39.4003 59.5783 40.1978C58.4416 41.0942 56.8855 40.961 55.5372 40.7821C53.0118 40.371 50.8807 38.7894 49.2362 36.9204C47.7533 35.1694 46.353 33.2376 45.8433 30.9689C45.524 29.8688 45.5856 28.7211 45.5914 27.5925C42.487 26.9873 39.1672 26.6808 36.1359 27.7828C34.3145 28.6031 32.518 30.0743 32.2141 32.147C34.3164 33.1481 36.286 34.7906 36.9342 37.0898C37.0899 37.9405 37.0996 38.8712 36.7534 39.6782C36.2725 40.5556 35.0685 40.6184 34.2202 40.2929C31.6063 39.3318 29.9599 36.6786 29.6541 34.016C28.4366 33.7514 27.1806 33.4793 25.9304 33.6829C21.7451 34.252 18.0541 36.5473 13.8842 37.1811C11.8915 37.4514 9.78926 37.4381 7.90433 36.6634C5.47124 35.8888 3.21125 34.3985 1.8341 32.2345C0.331923 30.023 -0.356654 27.2404 0.181897 24.6101C0.564653 22.9904 1.58598 21.386 3.21702 20.7788C4.56147 20.3068 6.18097 20.4191 7.36194 21.2527C9.35073 22.5203 10.1085 25.3467 8.9622 27.406C8.30825 28.5023 7.34463 29.4444 6.15789 29.9601C5.36545 30.2494 4.50185 30.1181 3.67863 30.1219C4.44414 31.4428 5.5097 32.6247 6.89263 33.327C8.65446 34.2311 10.6433 34.9181 12.6551 34.6517C17.2713 34.1359 21.3027 31.4123 25.9439 31.0107C27.1748 30.9479 28.4174 30.9936 29.6214 31.2658C30.1022 29.0485 31.741 27.2842 33.6124 26.0756C35.7186 24.7452 38.2825 24.4045 40.7348 24.395C42.5678 24.4369 44.4046 24.5987 46.1972 24.9965C46.805 22.762 48.4053 20.7864 50.5576 19.8424C52.4733 19.0126 54.6121 18.9251 56.6701 19.0297C60.0207 19.3114 63.1924 20.5771 66.1678 22.0635C67.4315 22.6935 68.626 23.451 69.7954 24.237C67.8277 21.6848 66.818 18.4492 66.9353 15.2442C66.8641 12.5529 67.6662 9.93787 68.624 7.44841C69.8819 4.65823 71.8361 2.19922 74.2153 0.259804ZM70.5897 9.94548C69.603 12.7566 69.2068 15.8627 70.0416 18.7633C70.7994 21.6886 72.8805 24.0315 74.9982 26.1099C76.7831 24.414 78.4449 22.5203 79.4662 20.2688C80.5048 17.7679 80.7068 14.9511 80.0798 12.3227C79.4393 8.81305 77.6486 5.52231 74.9982 3.09946C73.0363 5.01224 71.3764 7.30947 70.5897 9.94548ZM3.54207 23.7498C2.54768 24.9203 2.57076 26.5723 2.85734 27.9941C3.07853 27.8342 3.28434 27.6458 3.53822 27.543C4.14986 27.347 4.8596 27.7143 5.41931 27.3184C5.95978 26.9739 6.43486 26.4924 6.68105 25.8967C7.01957 25.1259 6.67528 24.2085 6.09634 23.6489C5.40969 22.9733 4.15563 22.9809 3.54207 23.7498ZM143.49 26.2164C143.86 26.7608 144.34 27.2804 144.989 27.4878C145.668 27.543 146.418 27.3298 146.991 27.819C147.06 27.9256 147.133 28.0321 147.21 28.1368C147.383 26.7684 147.503 25.242 146.7 24.0315C146.325 23.3977 145.544 23.0018 144.81 23.1922C143.527 23.4434 142.738 25.124 143.49 26.2164ZM48.2187 28.3252C48.2322 29.8992 48.6746 31.4713 49.5209 32.8093C50.4422 34.2615 51.5385 35.6281 52.8926 36.7091C54.1659 37.7273 55.8142 38.3402 57.4606 38.2469C58.1858 38.1974 58.4435 37.3752 58.3339 36.7662C58.1992 35.1884 57.1317 33.9075 55.9969 32.8816C53.7312 30.8832 51.0596 29.3682 48.2187 28.3252ZM96.3632 31.0888C94.6707 32.2688 92.8588 33.5497 92.0125 35.4948C91.7182 36.3037 91.3509 37.4019 92.0721 38.0947C92.9088 38.4563 93.8474 38.1746 94.6937 37.9805C96.8345 37.3943 98.3809 35.6832 99.6888 34.0046C100.995 32.3811 101.776 30.3636 101.824 28.2853C99.9215 29.0485 98.0347 29.8897 96.3632 31.0888ZM78.2199 32.3525C80.224 35.0152 81.9359 38.1042 82.0224 41.5015C82.1744 43.3362 81.6762 45.2395 80.5068 46.6879C82.2686 45.7039 84.1131 44.4401 84.7652 42.4398C85.2614 41.176 84.8652 39.7733 84.2478 38.6257C82.786 36.0772 80.426 34.2349 78.2199 32.3525ZM65.887 38.4011C65.0542 39.7962 64.6599 41.6157 65.5101 43.0964C66.2948 44.7542 67.9258 45.7286 69.4299 46.667C68.5202 45.3194 67.9047 43.7245 67.9893 42.082C67.9047 38.5115 69.655 35.2188 71.738 32.4153C69.5896 34.2006 67.3738 36.0087 65.887 38.4011ZM70.7282 40.9458C70.3416 42.9556 71.1533 45.2738 73.0228 46.2863C73.6979 46.6079 74.3808 47.0628 75.1559 47.0419C76.6984 46.6593 78.2487 45.7382 78.8777 44.2251C79.6797 42.6225 79.3566 40.7687 78.9007 39.1186C78.1333 36.6901 76.6138 34.5927 75.0001 32.6456C73.0363 35.0818 71.1148 37.7673 70.7282 40.9458ZM115.891 37.2211C116.363 36.8366 116.719 36.3342 117.026 35.8165C116.563 36.2123 116.184 36.692 115.891 37.2211Z" fill="#3A2A35"/>
</svg>
